<?xml version="1.0" standalone="no"?>
<svg version="1.1" xmlns="http://www.w3.org/2000/svg" xmlns:xlink="http://www.w3.org/1999/xlink" x="0px" y="0px" width="1024px" height="178px" viewBox="0 0 1024 178" enable-background="new 0 0 1024 178" xml:space="preserve"><polygon fill="#FFFFFF" points="1024,178 0,178 0,0 1024,0"/><path xmlns="http://www.w3.org/2000/svg" fill="#141412" font-weight="bold" d="M88.09 129.04Q75.99 129.04 66.36 123.92Q56.74 118.81 51.24 109.68Q45.74 100.55 45.74 89L45.74 89Q45.74 77.45 51.24 68.32Q56.74 59.19 66.36 54.08Q75.99 48.96 88.09 48.96L88.09 48.96Q98.65 48.96 107.12 52.70Q115.59 56.44 121.20 63.48L121.20 63.48L107.34 76.02Q99.86 67 89.19 67L89.19 67Q82.92 67 78.03 69.75Q73.13 72.50 70.44 77.50Q67.74 82.51 67.74 89L67.74 89Q67.74 95.49 70.44 100.50Q73.13 105.50 78.03 108.25Q82.92 111 89.19 111L89.19 111Q99.86 111 107.34 101.98L107.34 101.98L121.20 114.52Q115.59 121.56 107.12 125.30Q98.65 129.04 88.09 129.04L88.09 129.04ZM152.44 110.67L192.70 110.67L192.70 127.50L130.88 127.50L130.88 50.50L191.27 50.50L191.27 67.33L152.44 67.33L152.44 80.31L186.65 80.31L186.65 96.59L152.44 96.59L152.44 110.67ZM260.24 50.50L281.80 50.50L248.80 127.50L227.35 127.50L194.46 50.50L218.00 50.50L238.90 100.66L260.24 50.50ZM286.31 127.50L286.31 50.50L308.09 50.50L308.09 127.50L286.31 127.50Z"/><g><path fill="#323394" d="M334.931,73.371c-0.181-0.641-0.267-1.301-0.327-1.85l12.602,12.581 C340.397,81.64,336.158,81.975,334.931,73.371"/><path fill="#c41333" d="M415.722,115.954c-8.831,2.554-17.685,4.158-26.022,4.703l31.227,31.223l11.095-41.367 C427.111,112.417,421.689,114.222,415.722,115.954"/><path fill="#c41333" d="M443.51,64.399c-11.379,7.401-25.311,13.781-38.275,17.489c-17.806,5.161-35.959,6.776-49.823,4.384 l-21.157-21.185l117.507-31.565L443.51,64.399"/><path fill="#323394" d="M460.756,86.589c-8.896,10.981-23.162,18.734-46.193,25.432c-23.495,6.697-46.936,6.516-59.736-0.58 c-4.496-2.516-7.312-5.601-8.392-9.293l-6.739-16.765c0.268,0.129,0.535,0.267,0.766,0.5c13.803,7.585,39.672,7.634,65.947,0.128 c21.021-6.073,43.057-18.351,54.348-30.131V86.589"/><path fill="#323394" d="M420.924,37.621l-82.082,21.879c8.453-12.008,28.283-23.847,51.221-30.49 c6.447-1.871,20.849-4.191,30.861-3.807V37.621"/></g><path xmlns="http://www.w3.org/2000/svg" fill="#141412" font-weight="bold" d="M493.70 127.50L493.70 50.50L530.11 50.50Q542.76 50.50 552.55 55.23Q562.34 59.96 567.73 68.65Q573.12 77.34 573.12 89L573.12 89Q573.12 100.66 567.73 109.35Q562.34 118.04 552.55 122.77Q542.76 127.50 530.11 127.50L530.11 127.50L493.70 127.50ZM515.48 110.12L529.23 110.12Q539.13 110.12 545.13 104.51Q551.12 98.90 551.12 89L551.12 89Q551.12 79.10 545.13 73.49Q539.13 67.88 529.23 67.88L529.23 67.88L515.48 67.88L515.48 110.12ZM632.19 127.50L618.22 107.04L606.34 107.04L606.34 127.50L584.56 127.50L584.56 50.50L619.76 50.50Q630.21 50.50 637.91 53.97Q645.61 57.43 649.79 63.87Q653.97 70.30 653.97 78.99L653.97 78.99Q653.97 87.35 650.07 93.56Q646.16 99.78 638.90 103.30L638.90 103.30L655.51 127.50L632.19 127.50ZM631.97 78.99Q631.97 73.60 628.56 70.63Q625.15 67.66 618.44 67.66L618.44 67.66L606.34 67.66L606.34 90.21L618.44 90.21Q625.15 90.21 628.56 87.30Q631.97 84.38 631.97 78.99L631.97 78.99ZM701.49 129.04Q684.33 129.04 674.81 119.69Q665.30 110.34 665.30 93.18L665.30 93.18L665.30 50.50L687.08 50.50L687.08 92.52Q687.08 111 701.71 111L701.71 111Q716.23 111 716.23 92.52L716.23 92.52L716.23 50.50L737.68 50.50L737.68 93.18Q737.68 110.34 728.16 119.69Q718.65 129.04 701.49 129.04L701.49 129.04ZM787.62 50.50Q798.07 50.50 805.77 53.97Q813.47 57.43 817.65 63.87Q821.83 70.30 821.83 78.99L821.83 78.99Q821.83 87.68 817.65 94.06Q813.47 100.44 805.77 103.91Q798.07 107.37 787.62 107.37L787.62 107.37L774.20 107.37L774.20 127.50L752.42 127.50L752.42 50.50L787.62 50.50ZM786.30 90.21Q793.01 90.21 796.42 87.30Q799.83 84.38 799.83 78.99L799.83 78.99Q799.83 73.60 796.42 70.63Q793.01 67.66 786.30 67.66L786.30 67.66L774.20 67.66L774.20 90.21L786.30 90.21ZM886.18 127.50L880.13 112.54L847.57 112.54L841.52 127.50L819.30 127.50L853.29 50.50L874.74 50.50L908.84 127.50L886.18 127.50ZM853.95 96.48L873.75 96.48L863.85 71.84L853.95 96.48ZM915.00 127.50L915.00 50.50L936.78 50.50L936.78 110.23L973.52 110.23L973.52 127.50L915.00 127.50Z"/></svg>