<?xml version="1.0" standalone="no"?>
<svg version="1.1" xmlns="http://www.w3.org/2000/svg" xmlns:xlink="http://www.w3.org/1999/xlink" x="0px" y="0px" width="436px" height="178px" viewBox="0 0 436 178" enable-background="new 0 0 436 178" xml:space="preserve"><polygon fill="#FFFFFF" points="436,178 0,178 0,0 436,0"/><path xmlns="http://www.w3.org/2000/svg" fill="#141412" font-weight="bold" d="M88.09 129.04Q75.99 129.04 66.36 123.92Q56.74 118.81 51.24 109.68Q45.74 100.55 45.74 89L45.74 89Q45.74 77.45 51.24 68.32Q56.74 59.19 66.36 54.08Q75.99 48.96 88.09 48.96L88.09 48.96Q98.65 48.96 107.12 52.70Q115.59 56.44 121.20 63.48L121.20 63.48L107.34 76.02Q99.86 67 89.19 67L89.19 67Q82.92 67 78.03 69.75Q73.13 72.50 70.44 77.50Q67.74 82.51 67.74 89L67.74 89Q67.74 95.49 70.44 100.50Q73.13 105.50 78.03 108.25Q82.92 111 89.19 111L89.19 111Q99.86 111 107.34 101.98L107.34 101.98L121.20 114.52Q115.59 121.56 107.12 125.30Q98.65 129.04 88.09 129.04L88.09 129.04Z"/><g><path fill="#323394" d="M147.931,73.371c-0.181-0.641-0.267-1.301-0.327-1.85l12.602,12.581 C153.397,81.64,149.158,81.975,147.931,73.371"/><path fill="#c41333" d="M228.722,115.954c-8.831,2.554-17.685,4.158-26.022,4.703l31.227,31.223l11.095-41.367 C240.111,112.417,234.689,114.222,228.722,115.954"/><path fill="#c41333" d="M256.51,64.399c-11.379,7.401-25.311,13.781-38.275,17.489c-17.806,5.161-35.959,6.776-49.823,4.384 l-21.157-21.185l117.507-31.565L256.51,64.399"/><path fill="#323394" d="M273.756,86.589c-8.896,10.981-23.162,18.734-46.193,25.432c-23.495,6.697-46.936,6.516-59.736-0.58 c-4.496-2.516-7.312-5.601-8.392-9.293l-6.739-16.765c0.268,0.129,0.535,0.267,0.766,0.5c13.803,7.585,39.672,7.634,65.947,0.128 c21.021-6.073,43.057-18.351,54.348-30.131V86.589"/><path fill="#323394" d="M233.924,37.621l-82.082,21.879c8.453-12.008,28.283-23.847,51.221-30.49 c6.447-1.871,20.849-4.191,30.861-3.807V37.621"/></g><path xmlns="http://www.w3.org/2000/svg" fill="#141412" font-weight="bold" d="M306.70 127.50L306.70 50.50L343.11 50.50Q355.76 50.50 365.55 55.23Q375.34 59.96 380.73 68.65Q386.12 77.34 386.12 89L386.12 89Q386.12 100.66 380.73 109.35Q375.34 118.04 365.55 122.77Q355.76 127.50 343.11 127.50L343.11 127.50L306.70 127.50ZM328.48 110.12L342.23 110.12Q352.13 110.12 358.13 104.51Q364.12 98.90 364.12 89L364.12 89Q364.12 79.10 358.13 73.49Q352.13 67.88 342.23 67.88L342.23 67.88L328.48 67.88L328.48 110.12Z"/></svg>